<?xml version="1.0" standalone="no"?>
<!DOCTYPE svg PUBLIC "-//W3C//DTD SVG 20010904//EN"
 "http://www.w3.org/TR/2001/REC-SVG-20010904/DTD/svg10.dtd">
<svg version="1.0" xmlns="http://www.w3.org/2000/svg"
 width="1000.000000pt" height="1000.000000pt" viewBox="0 0 1000.000000 1000.000000"
 preserveAspectRatio="xMidYMid meet">
<metadata>
Created by potrace 1.14, written by Peter Selinger 2001-2017
</metadata>
<g transform="translate(0.000000,1000.000000) scale(0.100000,-0.100000)"
fill="#000000" stroke="none">
<path d="M4665 9989 c-383 -32 -661 -79 -990 -170 -1071 -294 -2004 -928
-2670 -1814 -335 -446 -583 -924 -760 -1465 -54 -165 -113 -393 -145 -555 -11
-60 -23 -120 -26 -132 -6 -29 -1 -29 81 2 84 32 237 77 242 71 2 -2 -3 -20
-11 -40 -8 -20 -12 -36 -8 -36 27 0 -39 -29 -169 -74 l-154 -54 -16 -128 c-29
-224 -42 -509 -35 -732 4 -114 9 -223 12 -243 l6 -36 37 18 c21 10 49 21 64
24 14 4 31 13 38 21 6 8 17 14 24 14 8 0 23 12 34 28 14 18 23 23 28 16 5 -7
19 -14 33 -15 20 -3 25 -10 26 -33 2 -42 -31 -70 -112 -95 -95 -30 -103 -35
-81 -59 25 -27 12 -50 -35 -63 l-40 -10 7 -67 c10 -103 52 -349 80 -469 35
-146 88 -333 96 -333 4 0 11 19 17 43 9 37 14 66 26 152 2 14 12 21 34 23 25
3 43 -6 90 -45 32 -27 74 -59 93 -70 34 -21 79 -73 79 -91 0 -5 11 -30 25 -55
14 -25 22 -48 18 -50 -5 -3 -38 -8 -73 -12 -36 -3 -89 -8 -117 -11 -43 -4 -52
-3 -48 8 6 14 -2 19 -77 52 -20 9 -40 21 -43 26 -3 6 -10 10 -15 10 -11 0 42
-168 110 -345 320 -832 854 -1557 1560 -2117 722 -572 1589 -931 2515 -1042
1053 -126 2139 95 3070 626 737 421 1358 1028 1797 1758 757 1256 924 2792
455 4175 -123 360 -266 671 -454 985 -308 512 -723 982 -1188 1347 -217 170
-454 328 -658 438 l-89 48 -71 -69 c-39 -38 -74 -72 -77 -75 -37 -39 -92 -49
-121 -23 -23 21 -14 42 25 58 28 12 67 69 114 167 3 8 -213 110 -352 166 -471
190 -945 301 -1489 348 -188 16 -542 18 -712 4z m935 -974 c144 -36 483 -163
644 -241 26 -12 47 -12 170 5 372 52 665 50 901 -4 71 -17 212 -62 230 -75 6
-4 25 -12 43 -18 18 -6 76 -37 128 -67 127 -75 295 -236 393 -378 66 -96 82
-123 151 -257 70 -135 153 -347 240 -615 27 -82 56 -172 65 -200 9 -27 29 -86
46 -131 16 -45 29 -85 29 -90 0 -5 33 -112 74 -239 41 -126 87 -270 102 -320
15 -49 44 -142 65 -205 32 -98 243 -762 355 -1115 19 -60 72 -225 118 -365
213 -652 236 -729 236 -781 0 -43 -49 -145 -87 -181 -122 -113 -412 -218 -608
-220 -180 -1 -244 47 -330 249 -61 144 -424 921 -527 1126 -32 65 -63 128 -68
140 -5 12 -21 40 -35 62 -13 22 -38 65 -54 95 -43 80 -92 146 -167 221 -137
139 -291 184 -491 143 -77 -16 -209 -59 -229 -75 -9 -7 -4 -35 18 -102 17 -50
37 -119 46 -152 62 -249 80 -311 189 -650 42 -132 79 -267 83 -300 5 -45 15
-73 42 -113 51 -75 162 -303 194 -397 36 -109 38 -235 4 -313 -18 -41 -29 -54
-49 -58 -39 -8 -56 -25 -69 -71 -24 -79 -56 -105 -176 -138 -32 -9 -56 -18
-54 -21 3 -2 24 -10 48 -17 l43 -12 -61 -43 c-34 -24 -84 -49 -111 -57 -57
-17 -73 -34 -68 -66 9 -49 -29 -137 -88 -204 -31 -36 -64 -65 -73 -65 -41 -1
-82 -36 -112 -97 -52 -104 -114 -145 -276 -184 -49 -11 -101 -29 -116 -40 -14
-11 -72 -31 -128 -46 -55 -14 -96 -30 -89 -34 15 -9 -74 -42 -226 -84 -430
-118 -725 -90 -895 84 -75 78 -96 121 -205 416 -52 140 -108 288 -124 327 -17
40 -64 165 -106 278 -42 113 -82 219 -90 235 -7 17 -16 41 -20 55 -3 14 -25
73 -47 133 -37 97 -43 107 -62 101 -31 -9 -31 -8 -7 -77 11 -35 21 -66 21 -70
0 -11 -178 -97 -295 -142 -143 -55 -314 -106 -522 -155 -217 -51 -215 -52
-232 5 -17 57 -31 68 -74 60 -46 -9 -50 -32 -20 -120 20 -60 56 -180 133 -440
23 -75 71 -226 105 -328 14 -43 23 -82 21 -86 -3 -5 -20 -11 -37 -15 l-31 -6
83 -91 c112 -122 154 -173 202 -244 22 -33 58 -79 80 -102 33 -34 42 -51 44
-87 3 -38 0 -47 -27 -69 -16 -14 -39 -49 -50 -80 -22 -59 -83 -137 -107 -137
-9 0 -36 -10 -61 -22 -37 -19 -49 -33 -73 -84 -32 -67 -90 -127 -145 -150 -19
-8 -76 -24 -127 -35 -50 -12 -101 -30 -112 -40 -28 -25 -169 -62 -240 -62 -44
0 -74 6 -114 25 -43 21 -50 23 -35 8 10 -11 43 -32 73 -48 l53 -30 -78 -25
c-283 -93 -541 -115 -725 -62 -185 53 -282 163 -365 415 -13 41 -28 84 -33 95
-15 34 -70 182 -126 340 -29 83 -55 157 -59 165 -3 8 -17 49 -30 90 -26 80
-53 156 -111 315 -20 55 -42 120 -50 145 -7 25 -41 124 -75 220 -34 96 -73
209 -86 250 -14 41 -29 84 -34 95 -5 11 -30 83 -56 160 -26 77 -51 148 -56
159 -8 14 -4 25 19 48 26 28 27 30 10 43 -40 29 -126 116 -178 181 -227 279
-377 670 -424 1109 -3 28 -7 70 -10 95 -10 95 -5 340 10 465 35 291 68 405
182 625 180 350 490 665 888 905 99 60 351 186 454 227 270 107 1580 542 1804
599 82 20 85 22 90 52 39 247 183 455 387 557 56 28 188 73 247 85 18 4 35 10
38 15 3 4 -22 1 -56 -8 -46 -11 -63 -12 -72 -3 -9 9 -9 14 0 19 6 4 11 16 10
27 -1 14 5 21 21 23 12 2 22 7 22 12 0 5 -8 7 -17 3 -15 -5 -15 -3 2 11 20 17
19 17 -10 12 -16 -2 -39 -8 -50 -12 -13 -5 -17 -4 -10 3 23 24 90 35 250 43
204 10 258 24 312 82 95 101 230 188 328 212 77 18 244 19 315 1z m-3702
-1129 c28 -27 52 -52 52 -56 0 -4 -20 -30 -45 -58 -26 -28 -43 -56 -40 -64 4
-9 -11 -28 -37 -49 -34 -27 -55 -35 -103 -41 -33 -3 -92 -16 -131 -28 l-70
-23 -25 25 c-14 14 -23 32 -20 39 8 19 231 233 301 288 39 31 56 39 60 29 3
-7 29 -35 58 -62z m7739 -2165 c-65 -64 -125 -120 -133 -124 -7 -4 -27 -4 -44
0 l-31 8 148 147 148 148 16 -32 16 -31 -120 -116z m263 -186 c-7 -9 -15 -13
-17 -11 -7 7 7 26 19 26 6 0 6 -6 -2 -15z m-5851 -2257 c12 -34 21 -65 21 -69
0 -4 -43 -17 -95 -29 -52 -12 -100 -29 -106 -36 -18 -22 12 -27 62 -10 70 25
82 21 159 -51 169 -158 321 -477 304 -638 -8 -72 -37 -145 -58 -145 -30 0 -94
-69 -111 -120 -24 -71 -52 -93 -147 -119 -93 -24 -111 -25 -138 -11 -22 12
-95 115 -115 163 -16 39 -84 339 -92 409 -3 27 -9 45 -12 40 -3 -5 -17 -9 -30
-8 -20 1 -29 16 -67 115 -24 62 -44 117 -44 122 0 5 -8 28 -19 52 -10 23 -33
80 -51 127 -17 47 -36 93 -42 104 -13 24 -2 31 82 52 36 9 148 38 250 64 102
26 195 48 207 49 17 1 25 -10 42 -61z m-3194 -490 c-5 -4 -55 -8 -109 -8 l-99
0 -56 53 c-31 30 -62 56 -69 58 -8 3 -14 30 -16 79 -5 101 0 118 32 122 23 3
50 -20 177 -147 86 -86 146 -153 140 -157z m330 -340 c9 -24 28 -71 40 -105
l23 -63 -26 0 c-16 1 -43 15 -65 35 -35 31 -38 36 -32 72 10 55 25 103 34 103
4 0 16 -19 26 -42z m2864 -454 c2 -2 2 -5 0 -7 -2 -2 -20 -14 -39 -28 -19 -14
-52 -29 -72 -33 l-38 -7 0 41 c0 23 3 39 8 37 4 -3 16 -1 27 4 18 8 104 3 114
-7z"/>
<path d="M4125 6378 c4 -18 9 -44 10 -58 5 -41 41 -113 69 -139 14 -14 26 -19
26 -13 0 28 27 8 54 -40 32 -57 96 -125 168 -178 27 -19 50 -44 52 -55 8 -38
37 -310 38 -354 0 -35 -5 -48 -23 -62 -50 -39 -343 -139 -406 -139 -117 0
-183 147 -183 406 0 183 49 259 208 323 45 18 82 35 82 37 0 2 -22 41 -49 86
-27 46 -53 95 -56 111 -4 15 -12 27 -17 27 -22 0 -162 -62 -201 -89 -65 -45
-146 -136 -171 -193 -34 -78 -46 -146 -46 -270 0 -293 86 -547 218 -641 68
-48 98 -58 183 -64 75 -6 81 -4 305 72 273 92 320 114 356 161 47 63 54 124
34 297 -10 84 -22 163 -27 176 -8 20 -7 22 8 16 134 -56 149 -59 382 -63 212
-3 227 -5 270 -27 25 -13 62 -38 81 -55 65 -59 97 -80 123 -80 80 0 -28 163
-142 214 -50 22 -61 24 -101 15 -25 -6 -67 -8 -94 -5 -41 4 -60 1 -102 -20
-51 -25 -122 -31 -116 -9 2 10 6 12 46 14 15 1 26 9 29 21 5 19 0 20 -65 20
-38 0 -77 -4 -87 -9 -11 -6 -41 -6 -82 0 -35 5 -98 13 -139 18 -95 10 -129 26
-226 103 -89 70 -109 89 -197 196 -34 42 -72 86 -84 99 -13 13 -23 28 -23 32
0 4 -18 36 -40 70 -22 34 -40 66 -40 71 0 6 -7 10 -16 10 -13 0 -15 -6 -9 -32z"/>
<path d="M2425 6168 c-16 -6 -64 -24 -106 -40 l-77 -29 9 -37 c5 -20 23 -149
39 -287 17 -137 47 -369 66 -514 19 -145 38 -301 44 -345 5 -45 19 -155 30
-246 12 -91 19 -173 17 -182 -4 -15 -1 -15 40 -3 24 7 78 26 119 41 73 26 74
27 69 58 -9 55 -115 911 -115 928 0 7 164 72 290 114 115 38 207 40 246 4 49
-45 64 -98 94 -338 16 -125 34 -261 39 -302 14 -105 25 -214 23 -222 -3 -14
22 -9 110 21 99 34 131 49 123 60 -6 12 -19 98 -66 471 -21 173 -46 341 -54
372 -34 133 -122 216 -250 236 -99 16 -159 5 -360 -63 -105 -36 -200 -65 -212
-65 -17 0 -22 8 -27 38 -7 43 -35 274 -38 315 -3 29 -8 31 -53 15z"/>
<path d="M1920 6004 c-25 -9 -91 -38 -148 -65 -168 -81 -255 -187 -283 -344
-6 -37 -9 -89 -7 -117 l5 -50 -43 -19 c-24 -11 -65 -28 -91 -39 -26 -12 -43
-24 -37 -28 12 -8 38 -217 29 -232 -8 -13 -11 -14 85 15 46 14 85 23 87 21 2
-1 23 -158 48 -347 24 -189 49 -378 54 -419 6 -41 13 -101 17 -132 3 -32 9
-58 13 -58 11 0 173 56 204 71 15 7 24 15 19 18 -5 3 -35 213 -67 466 -31 253
-59 463 -61 467 -7 10 55 40 181 86 61 22 117 43 126 47 13 5 15 13 9 42 -9
39 -25 180 -23 201 1 19 -18 15 -158 -33 -163 -56 -169 -56 -169 -9 0 87 54
142 202 205 64 28 97 47 94 55 -3 7 -10 58 -17 113 -7 56 -15 101 -18 101 -4
-1 -26 -8 -51 -16z"/>
<path d="M6862 3602 c-11 -8 -12 -75 0 -121 2 -8 -7 -17 -22 -21 -38 -10 -28
-42 35 -107 31 -32 68 -76 82 -99 29 -46 84 -87 107 -82 13 2 9 13 -20 53 -67
94 -94 168 -131 358 -5 27 -25 35 -51 19z"/>
<path d="M6170 3575 c-10 -13 -9 -15 12 -15 13 0 33 7 44 15 18 14 17 14 -12
15 -17 0 -37 -7 -44 -15z"/>
<path d="M6451 3521 c-12 -8 -10 -12 12 -22 21 -10 36 -10 69 1 37 11 40 14
23 21 -28 11 -87 11 -104 0z"/>
<path d="M6015 3135 c-19 -15 -18 -15 15 -13 19 2 34 8 33 13 -3 17 -27 17
-48 0z"/>
<path d="M3005 2565 c-5 -2 -29 -9 -52 -15 -25 -6 -55 -24 -72 -42 -29 -31
-35 -51 -9 -31 7 6 45 18 83 27 39 9 92 22 118 29 l49 13 -40 12 c-39 12 -58
14 -77 7z"/>
<path d="M3285 2493 c-44 -6 -86 -24 -82 -36 9 -28 36 -29 136 -6 96 23 100
25 74 36 -28 12 -69 14 -128 6z"/>
<path d="M2773 2103 c-22 -4 -68 -52 -59 -61 3 -2 19 1 37 7 18 6 43 11 56 11
13 0 38 7 55 16 24 12 28 18 17 25 -14 9 -66 10 -106 2z"/>
<path d="M3829 2783 c-16 -2 -29 -12 -32 -24 -4 -16 0 -19 28 -19 41 0 87 19
82 34 -4 12 -37 16 -78 9z"/>
</g>
</svg>
